# xmcd
#
# Track frame offsets:
#	150
#	22255
#	39797
#	56677
#	75150
#	93602
#	111995
#	129902
#	144210
#	166255
#	183822
#	200682
#	218865
#	237232
#	255615
#	273455
#
# Disc length: 3838 seconds
#
# Revision: 1
# Processed by: cddbd v1.5.1PL2 Copyright (c) Steve Scherf et al.
# Submitted via: audiograbber 1.83.01
#
DISCID=d70efc10
DTITLE=Various Artist - Sc3077
DYEAR=1900
DGENRE=Country
TTITLE0=Gill, Vince - If You Ever Have Forever In Mind
TTITLE1=Peterson, Michael - When The Bartender Cries
TTITLE2=Restless Heart - No End To The Road
TTITLE3=Big House - Faith
TTITLE4=Diamond Rio - You're Gone
TTITLE5=Crittenden, Melodie - I Should've Known
TTITLE6=Keith, Toby - Double Wide Paradise
TTITLE7=Lovett, Ruby - Little Bitty Crack In His Heart
TTITLE8=Gill, Vince (Vocal) - If You Ever Have Forever In Mind
TTITLE9=Peterson, Michael (Vocal) - When The Bartender Cries
TTITLE10=Restless Heart (Vocal) - No End To The Road
TTITLE11=Big House (Vocal) - Faith
TTITLE12=Diamond Rio (Vocal) - You're Gone
TTITLE13=Crittenden, Melodie (Vocal) - I Should've Known
TTITLE14=Keith, Toby (Vocal) - Double Wide Paradise
TTITLE15=Lovett, Ruby (Vocal) - Little Bitty Crack In His Heart
EXTD=
EXTT0=
EXTT1=
EXTT2=
EXTT3=
EXTT4=
EXTT5=
EXTT6=
EXTT7=
EXTT8=
EXTT9=
EXTT10=
EXTT11=
EXTT12=
EXTT13=
EXTT14=
EXTT15=
PLAYORDER=
